<?xml version="1.0" encoding="utf-8"?>
<!-- Generator: Adobe Illustrator 16.0.0, SVG Export Plug-In . SVG Version: 6.00 Build 0)  -->
<!DOCTYPE svg PUBLIC "-//W3C//DTD SVG 1.1//EN" "http://www.w3.org/Graphics/SVG/1.1/DTD/svg11.dtd">
<svg version="1.1" id="Layer_1" xmlns="http://www.w3.org/2000/svg" xmlns:xlink="http://www.w3.org/1999/xlink" x="0px" y="0px"
	 width="123.252px" height="45.006px" viewBox="0 0 123.252 45.006" enable-background="new 0 0 123.252 45.006"
	 xml:space="preserve">
<g>
	<path fill="#4BCAFF" d="M18.896,21.006h-4.775L5.464,7.808C4.956,7.036,4.604,6.455,4.409,6.064H4.351
		c0.078,0.742,0.117,1.875,0.117,3.398v11.543H0V0h5.098l8.335,12.788c0.381,0.576,0.732,1.147,1.055,1.714h0.059
		c-0.078-0.488-0.117-1.45-0.117-2.886V0h4.468V21.006z"/>
	<path fill="#4BCAFF" d="M42.173,21.006h-5.156l-1.494-4.673h-7.471l-1.479,4.673h-5.127L29.092,0h5.61L42.173,21.006z M34.438,12.7
		L32.183,5.64c-0.166-0.527-0.283-1.157-0.352-1.89h-0.117c-0.049,0.615-0.171,1.226-0.366,1.831L29.063,12.7H34.438z"/>
	<path fill="#4BCAFF" d="M57.451,3.853H51.46v17.153h-4.746V3.853h-5.962V0h16.699V3.853z"/>
	<path fill="#4BCAFF" d="M78.457,21.006h-4.746v-8.555H65.01v8.555h-4.731V0h4.731v8.379h8.701V0h4.746V21.006z"/>
	<path fill="#4BCAFF" d="M101.733,21.006h-5.156l-1.494-4.673h-7.471l-1.479,4.673h-5.127L88.652,0h5.61L101.733,21.006z
		 M93.999,12.7L91.743,5.64c-0.166-0.527-0.283-1.157-0.352-1.89h-0.117c-0.049,0.615-0.171,1.226-0.366,1.831L88.623,12.7H93.999z"
		/>
	<path fill="#4BCAFF" d="M123.252,21.006h-4.775l-8.657-13.198c-0.508-0.771-0.859-1.353-1.055-1.743h-0.059
		c0.078,0.742,0.117,1.875,0.117,3.398v11.543h-4.468V0h5.098l8.335,12.788c0.381,0.576,0.732,1.147,1.055,1.714h0.059
		c-0.078-0.488-0.117-1.45-0.117-2.886V0h4.468V21.006z"/>
	<path fill="#FFFFFF" d="M21.728,45.006h-5.156l-1.494-4.673H7.606l-1.479,4.673H1L8.646,24h5.61L21.728,45.006z M13.993,36.7
		l-2.256-7.061c-0.166-0.527-0.283-1.157-0.352-1.89h-0.117c-0.049,0.615-0.171,1.226-0.366,1.831L8.617,36.7H13.993z"/>
	<path fill="#FFFFFF" d="M24.35,45.006V24h7.441c7.461,0,11.191,3.413,11.191,10.239c0,3.271-1.018,5.884-3.054,7.837
		s-4.749,2.93-8.137,2.93H24.35z M29.081,27.853v13.315h2.344c2.051,0,3.66-0.615,4.827-1.846s1.75-2.905,1.75-5.024
		c0-2.002-0.579-3.577-1.736-4.724s-2.781-1.721-4.871-1.721H29.081z"/>
	<path fill="#FFFFFF" d="M64.486,45.006H59.33l-1.494-4.673h-7.471l-1.479,4.673h-5.127L51.405,24h5.61L64.486,45.006z M56.752,36.7
		l-2.256-7.061c-0.166-0.527-0.283-1.157-0.352-1.89h-0.117c-0.049,0.615-0.171,1.226-0.366,1.831L51.376,36.7H56.752z"/>
	<path fill="#FFFFFF" d="M91.044,45.006h-4.673V32.438c0-1.357,0.059-2.856,0.176-4.497H86.43c-0.244,1.289-0.464,2.217-0.659,2.783
		l-4.922,14.282h-3.867l-5.01-14.136c-0.137-0.381-0.356-1.357-0.659-2.93h-0.132c0.127,2.07,0.19,3.887,0.19,5.449v11.616h-4.263
		V24h6.929l4.292,12.451c0.342,0.996,0.591,1.997,0.747,3.003h0.088c0.264-1.162,0.542-2.173,0.835-3.032L84.291,24h6.753V45.006z"
		/>
	<path fill="#FFFFFF" d="M94.898,43.834l-0.046-4.321c0.85,0.713,1.772,1.248,2.769,1.604s2.002,0.535,3.018,0.535
		c0.596,0,1.115-0.054,1.56-0.161s0.815-0.256,1.113-0.447s0.521-0.415,0.667-0.674s0.22-0.54,0.22-0.842
		c0-0.41-0.117-0.776-0.352-1.099s-0.555-0.62-0.959-0.894c-0.406-0.273-0.887-0.537-1.443-0.791s-1.157-0.513-1.802-0.776
		c-1.641-0.684-2.864-1.519-3.669-2.505c-0.807-0.986-1.209-2.178-1.209-3.574c0-1.094,0.22-2.034,0.659-2.82
		s1.037-1.433,1.794-1.941s1.634-0.881,2.63-1.121s2.051-0.359,3.164-0.359c1.094,0,2.063,0.066,2.907,0.198
		s1.624,0.334,2.337,0.608v4.38c-0.352-0.244-0.735-0.459-1.149-0.645c-0.416-0.186-0.843-0.339-1.282-0.461
		s-0.877-0.212-1.312-0.271s-0.847-0.088-1.237-0.088c-0.537,0-1.025,0.051-1.465,0.154s-0.811,0.247-1.113,0.432
		s-0.537,0.408-0.703,0.667s-0.249,0.549-0.249,0.872c0,0.352,0.093,0.667,0.278,0.945s0.449,0.542,0.791,0.791
		s0.757,0.493,1.245,0.732s1.04,0.486,1.655,0.74c0.84,0.352,1.594,0.725,2.263,1.121s1.243,0.842,1.722,1.34
		s0.845,1.067,1.099,1.707s0.381,1.384,0.381,2.234c0,1.172-0.104,2.235-0.666,2.952c-0.585,0.745-1.002,1.074-1.764,1.567
		s-1.647,0.847-2.659,1.062c-1.01,0.215-2.077,0.322-3.2,0.322c-1.152,0-2.249-0.098-3.288-0.293
		C96.561,44.518,95.66,44.225,94.898,43.834z"/>
</g>
</svg>
