<?xml version="1.0" encoding="utf-8"?>
<!-- Generator: Adobe Illustrator 16.0.0, SVG Export Plug-In . SVG Version: 6.00 Build 0)  -->
<!DOCTYPE svg PUBLIC "-//W3C//DTD SVG 1.1//EN" "http://www.w3.org/Graphics/SVG/1.1/DTD/svg11.dtd">
<svg version="1.1" id="Layer_1" xmlns="http://www.w3.org/2000/svg" xmlns:xlink="http://www.w3.org/1999/xlink" x="0px" y="0px"
	 width="637px" height="637px" viewBox="-12.5 77.5 637 637" enable-background="new -12.5 77.5 637 637" xml:space="preserve">
<path fill="#FFFFFF" d="M624.5,714.5h-637v-637h637V714.5z M12.5,689.5h587v-587h-587V689.5z"/>
<path fill="#FFFFFF" d="M411.108,568.127c12.327,20.129,28.366,34.924,56.731,34.924c23.829,0,39.052-11.91,39.052-28.366
	c0-19.72-15.641-26.704-41.869-38.177l-14.377-6.169c-41.499-17.68-69.068-39.828-69.068-86.651
	c0-43.132,32.863-75.966,84.223-75.966c36.564,0,62.852,12.726,81.795,46.046l-44.783,28.754
	c-9.86-17.68-20.497-24.645-37.012-24.645c-16.845,0-27.521,10.686-27.521,24.645c0,17.253,10.686,24.237,35.36,34.923l14.377,6.159
	c48.863,20.954,76.451,42.315,76.451,90.343c0,51.777-40.674,80.143-95.297,80.143c-53.409,0-87.914-25.451-104.798-58.81
	L411.108,568.127z M207.954,573.111c9.034,16.028,17.252,29.579,37.012,29.579c18.894,0,30.813-7.393,30.813-36.137V371.005h57.508
	v196.326c0,59.549-34.913,86.651-85.874,86.651c-46.045,0-72.711-23.829-86.272-52.53L207.954,573.111z"/>
</svg>
