<?xml version="1.0" encoding="utf-8"?>
<!-- Generator: Adobe Illustrator 16.0.0, SVG Export Plug-In . SVG Version: 6.00 Build 0)  -->
<!DOCTYPE svg PUBLIC "-//W3C//DTD SVG 1.1//EN" "http://www.w3.org/Graphics/SVG/1.1/DTD/svg11.dtd">
<svg version="1.1" id="Layer_1" xmlns="http://www.w3.org/2000/svg" xmlns:xlink="http://www.w3.org/1999/xlink" x="0px" y="0px"
	 width="612px" height="596.7px" viewBox="0 90 612 596.7" enable-background="new 0 90 612 596.7" xml:space="preserve">
<path fill="#FFFFFF" d="M0,90v596.7h612V90H0z M25.5,115.5h561v545.7h-561V115.5z M147.9,229.714c0-1.683,3.608-2.945,5.712-2.945
	c16.41-0.842,40.502-1.263,65.744-1.263c70.686,0,98.216,38.709,98.216,88.357c0,64.796-46.992,92.565-104.634,92.565
	c-9.677,0-13.043-0.424-19.775-0.424v97.972c0,2.106-0.842,2.947-2.945,2.947h-39.372c-2.104,0-2.945-0.841-2.945-2.947V229.714
	L147.9,229.714z M193.163,365.196c5.891,0.418,10.519,0.418,20.617,0.418c29.873,0,57.931-10.519,57.931-50.911
	c0-32.4-20.063-48.807-54.144-48.807c-10.098,0-19.775,0.418-24.403,0.841v98.456V365.196z M412.646,334.902
	c-20.196,0-26.929,10.098-26.929,18.513c0,9.256,4.629,15.565,31.56,29.453c39.971,19.354,52.594,37.868,52.594,65.213
	c0,40.815-31.136,62.694-73.211,62.694c-22.3,0-41.279-4.631-52.219-10.939c-1.684-0.842-2.104-2.104-2.104-4.207v-37.447
	c0-2.524,1.262-3.366,2.945-2.106c15.988,10.517,34.544,15.147,51.377,15.147c20.196,0,28.611-8.415,28.611-19.775
	c0-9.257-5.891-17.253-31.557-30.715c-36.185-17.253-51.331-34.925-51.331-64.375c0-32.819,25.665-60.17,70.263-60.17
	c21.879,0,37.326,3.366,45.741,7.15c2.104,1.265,2.524,3.366,2.524,5.049v34.93c0,2.101-1.262,3.366-3.786,2.524
	C445.769,339.109,429.058,334.902,412.646,334.902L412.646,334.902z"/>
</svg>
