<?xml version="1.0" encoding="utf-8"?>
<!-- Generator: Adobe Illustrator 16.0.0, SVG Export Plug-In . SVG Version: 6.00 Build 0)  -->
<!DOCTYPE svg PUBLIC "-//W3C//DTD SVG 1.1//EN" "http://www.w3.org/Graphics/SVG/1.1/DTD/svg11.dtd">
<svg version="1.1" id="Layer_1" xmlns="http://www.w3.org/2000/svg" xmlns:xlink="http://www.w3.org/1999/xlink" x="0px" y="0px"
	 width="566.414px" height="637.487px" viewBox="22.196 77.5 566.414 637.487" enable-background="new 22.196 77.5 566.414 637.487"
	 xml:space="preserve">
<title>HTML5 Logo Badge</title>
<path fill="#FFFFFF" d="M304.795,714.987L73.181,649.531L22.196,77.5h566.414l-50.987,572.044L304.795,714.987z M96.553,630.157
	l208.261,58.855l209.438-58.869L561.281,102.5H49.523L96.553,630.157z"/>
<polygon fill="#FFFFFF" points="306,202.359 304.805,202.359 136.266,202.359 137.461,220.289 154.195,406.758 304.805,406.758 
	306,406.758 388.477,406.758 380.109,494.016 304.805,514.336 229.5,494.016 224.719,440.227 188.859,440.227 157.781,440.227 
	166.148,546.609 304.805,584.859 306,584.859 306,584.529 443.461,546.609 444.656,534.656 460.195,356.555 462.586,338.625 
	443.461,338.625 306,338.625 304.805,338.625 216.352,338.625 210.375,269.297 304.805,269.297 306,269.297 468.563,269.297 
	469.758,254.953 473.344,220.289 474.539,202.359 "/>
</svg>
