<?xml version="1.0" encoding="utf-8"?>
<!-- Generator: Adobe Illustrator 16.0.0, SVG Export Plug-In . SVG Version: 6.00 Build 0)  -->
<!DOCTYPE svg PUBLIC "-//W3C//DTD SVG 1.1//EN" "http://www.w3.org/Graphics/SVG/1.1/DTD/svg11.dtd">
<svg version="1.1" id="Layer_1" xmlns="http://www.w3.org/2000/svg" xmlns:xlink="http://www.w3.org/1999/xlink" x="0px" y="0px"
	 width="462.002px" height="522.092px" viewBox="75 197.272 462.002 522.092" enable-background="new 75 197.272 462.002 522.092"
	 xml:space="preserve">
<title>CSS3 Logo</title>
<path fill="#FFFFFF" d="M305.733,715.492l-189.214-52.528L75,197.272h462.002l-41.563,465.626L305.733,715.492z M140.817,642.725
	l164.919,45.784l165.404-45.855l37.437-419.382H103.42L140.817,642.725z"/>
<path fill="#FFFFFF" d="M167.739,293.569l-0.308,54.766H390.34l-0.08,35.375H167.203l-0.161,54.766h222.91l-0.293,62.463
	l-84.062,29.75l-83.64-29.75l0.063-27.088h-54.765l-0.251,65.721l138.353,49.289l138.877-49.289l0.467-98.873l0.141-19.834
	l0.568-127.293L167.739,293.569L167.739,293.569z"/>
</svg>
