<?xml version="1.0" encoding="utf-8"?>
<!-- Generator: Adobe Illustrator 16.0.0, SVG Export Plug-In . SVG Version: 6.00 Build 0)  -->
<!DOCTYPE svg PUBLIC "-//W3C//DTD SVG 1.1//EN" "http://www.w3.org/Graphics/SVG/1.1/DTD/svg11.dtd">
<svg version="1.1" id="Layer_1" xmlns="http://www.w3.org/2000/svg" xmlns:xlink="http://www.w3.org/1999/xlink" x="0px" y="0px"
	 width="612px" height="596.7px" viewBox="0 90 612 596.7" enable-background="new 0 90 612 596.7" xml:space="preserve">
<path fill="#FFFFFF" d="M0,90v596.7h612V90H0z M25.5,115.5h561v545.7h-561V115.5z M158.737,229.681c0-1.683,0.421-2.945,2.525-2.945
	c16.409-0.842,40.392-1.263,65.637-1.263c70.686,0,101.401,38.709,101.401,88.358c0,64.795-46.882,92.565-104.524,92.565
	c-9.677,0-13.043-0.418-19.775-0.418v97.996c0,2.106-0.841,2.948-2.945,2.948h-39.372c-2.104,0-2.945-0.842-2.945-2.95V229.681
	L158.737,229.681z M204,365.163c5.891,0.42,10.519,0.42,20.617,0.42c29.874,0,57.821-10.519,57.821-50.911
	c0-32.398-19.954-48.807-54.035-48.807c-10.098,0-19.775,0.423-24.403,0.842V365.163L204,365.163z M367.2,342.021
	c0-2.942,0-10.519-1.263-24.822c0-2.109,0.296-2.524,1.979-3.366c15.567-6.312,52.004-17.671,93.237-17.671
	c2.106,0,2.948,0.418,2.948,2.524v37.026c0,2.101-0.679,2.524-2.779,2.524c-15.988-0.841-39.385,1.26-48.221,5.049v160.688
	c0,2.106-0.842,2.95-2.948,2.95h-40.009c-2.102,0-2.943-0.841-2.943-2.95v-161.95L367.2,342.021z"/>
</svg>
