<?xml version="1.0" encoding="utf-8"?>
<!-- Generator: Adobe Illustrator 16.0.0, SVG Export Plug-In . SVG Version: 6.00 Build 0)  -->
<!DOCTYPE svg PUBLIC "-//W3C//DTD SVG 1.1//EN" "http://www.w3.org/Graphics/SVG/1.1/DTD/svg11.dtd">
<svg version="1.1" id="pl_x5F_cc_x5F_app_x5F_RGB.svg"
	 xmlns="http://www.w3.org/2000/svg" xmlns:xlink="http://www.w3.org/1999/xlink" x="0px" y="0px" width="612px" height="596.7px"
	 viewBox="0 97.65 612 596.7" enable-background="new 0 97.65 612 596.7" xml:space="preserve">
<g>
	<path fill="#FFFFFF" d="M0,97.65v596.7h612.003V97.65H0z M25.5,123.15h561.003v545.7H25.5V123.15z"/>
</g>
<path fill="#FFFFFF" d="M167.025,237.071c0-1.681,0.421-2.945,2.524-2.945c16.41-0.841,40.091-1.26,65.336-1.26
	c70.686,0,101.4,38.709,101.4,88.357c0,64.796-46.583,92.561-104.226,92.561c-9.677,0-13.043-0.419-19.775-0.419v98.265
	c0,2.102-0.842,2.942-2.945,2.942h-39.37c-2.104,0-2.945-0.841-2.945-2.942V237.071z M212.288,372.553
	c5.891,0.421,10.519,0.421,20.617,0.421c29.873,0,57.523-10.519,57.523-50.911c0-32.398-19.656-48.807-53.736-48.807
	c-10.098,0-19.775,0.421-24.403,0.841V372.553z M381.225,236.602c0-1.683,0.419-2.524,2.943-2.524h39.589
	c2.524,0,3.365,0.841,3.365,2.524v228.934c0,10.101,3.784,13.885,11.36,13.885c3.366,0,4.833-0.418,6.934-0.842
	c1.684,0,2.106,0.424,2.106,2.524v29.873c0,2.525-0.423,3.366-2.106,4.208c-5.47,2.102-13.283,2.942-22.118,2.942
	c-22.303,0-42.075-8.412-42.075-48.805v-232.72H381.225z"/>
</svg>
