<?xml version="1.0" encoding="utf-8"?>
<!-- Generator: Adobe Illustrator 16.0.0, SVG Export Plug-In . SVG Version: 6.00 Build 0)  -->
<!DOCTYPE svg PUBLIC "-//W3C//DTD SVG 1.1//EN" "http://www.w3.org/Graphics/SVG/1.1/DTD/svg11.dtd">
<svg version="1.1" id="Layer_1" xmlns="http://www.w3.org/2000/svg" xmlns:xlink="http://www.w3.org/1999/xlink" x="0px" y="0px"
	 width="612px" height="596.7px" viewBox="0 90 612 596.7" enable-background="new 0 90 612 596.7" xml:space="preserve">
<path fill="#FFFFFF" d="M0,90v596.7h612V90H0z M25.5,115.5h561v545.7h-561V115.5z"/>
<path fill="#FFFFFF" d="M212.292,427.875l-20.196,76.457c-0.418,2.101-1.262,2.593-3.784,2.593h-37.455
	c-2.52,0-2.938-0.841-2.52-3.786l72.369-253.593c1.262-4.628,2.104-8.611,2.524-21.234c0-1.683,0.842-2.524,2.106-2.524h53.433
	c1.683,0,2.524,0.42,2.948,2.524l81.202,275.247c0.421,2.102,0,3.366-2.104,3.366h-42.075c-2.101,0-3.366-0.492-3.784-2.175
	l-21.038-76.875h-81.625H212.292z M283.402,386.438c-7.153-28.19-23.985-89.977-30.294-119.85h-0.421
	c-5.472,29.874-18.936,80.3-29.452,119.85H283.402z M398.132,244.714c0-16.41,11.36-26.087,26.086-26.087
	c15.568,0,26.087,10.519,26.087,26.087c0,16.83-10.939,26.086-26.508,26.086C408.65,270.8,398.132,261.543,398.132,244.714
	L398.132,244.714z M400.987,302.683c0-2.104,0.842-2.945,2.945-2.945h40.01c2.104,0,2.945,0.842,2.945,2.945v201.297
	c0,2.104-0.421,2.945-2.945,2.945h-39.589c-2.524,0-3.366-1.265-3.366-3.366V302.683z"/>
</svg>
