<?xml version="1.0" encoding="utf-8"?>
<!-- Generator: Adobe Illustrator 16.0.0, SVG Export Plug-In . SVG Version: 6.00 Build 0)  -->
<!DOCTYPE svg PUBLIC "-//W3C//DTD SVG 1.1//EN" "http://www.w3.org/Graphics/SVG/1.1/DTD/svg11.dtd">
<svg version="1.1" id="Layer_1" xmlns="http://www.w3.org/2000/svg" xmlns:xlink="http://www.w3.org/1999/xlink" x="0px" y="0px"
	 width="612px" height="596.7px" viewBox="0 90 612 596.7" enable-background="new 0 90 612 596.7" xml:space="preserve">
<path fill="#FFFFFF" d="M0,90v596.7h612V90H0z M25.5,115.5h561v545.7h-561V115.5z M223.763,503.559c0,2.525-0.421,3.366-3.366,3.366
	h-39.168c-2.524,0-3.366-1.262-3.366-3.366V229.791c0-2.524,1.263-3.366,3.366-3.366h39.589c2.104,0,2.945,0.842,2.945,2.945
	V503.559z M268.872,404.805c0-61.011,40.252-108.553,104.626-108.553c5.471,0,8.415,0,13.465,0.418v-67.72
	c0-1.683,1.26-2.525,2.524-2.525h41.488c2.102,0,2.524,0.842,2.524,2.104v238.544c0,7.153,0,15.989,1.26,25.666
	c0,1.683-0.535,2.106-2.219,2.948c-21.879,10.519-45.02,15.146-66.896,15.146C309.264,510.834,268.872,475.909,268.872,404.805
	L268.872,404.805z M386.963,337.906c-3.784-1.683-8.836-2.524-15.147-2.524c-32.818,0-55.819,25.245-55.819,67.32
	c0,47.966,23.422,67.32,52.871,67.32c6.312,0,13.046-0.842,18.096-2.945V337.906L386.963,337.906z"/>
</svg>
