<?xml version="1.0" encoding="utf-8"?>
<!-- Generator: Adobe Illustrator 16.0.0, SVG Export Plug-In . SVG Version: 6.00 Build 0)  -->
<!DOCTYPE svg PUBLIC "-//W3C//DTD SVG 1.1//EN" "http://www.w3.org/Graphics/SVG/1.1/DTD/svg11.dtd">
<svg version="1.1" id="Layer_1" xmlns="http://www.w3.org/2000/svg" xmlns:xlink="http://www.w3.org/1999/xlink" x="0px" y="0px"
	 width="612px" height="596.7px" viewBox="0 90 612 596.7" enable-background="new 0 90 612 596.7" xml:space="preserve">
<path fill="#FFFFFF" d="M0,90v596.7h612V90H0z M25.5,115.5h561v545.7h-561V115.5z M172.982,427.875l-20.196,76.156
	c-0.423,2.1-1.265,2.893-3.789,2.893h-37.444c-2.524,0-2.948-0.84-2.524-3.785l72.369-253.292c1.262-4.625,2.104-8.277,2.524-20.897
	c0-1.683,0.841-2.524,2.104-2.524h53.438c1.678,0,2.524,0.421,2.945,2.524l81.207,274.609c0.418,2.104,0,3.365-2.106,3.365h-42.075
	c-2.101,0-3.366-0.789-3.784-2.473l-21.038-76.576h-81.625H172.982L172.982,427.875z M244.545,386.476
	c-7.15-28.19-24.444-90.015-30.753-119.888h-0.418c-5.47,29.871-19.278,80.315-29.799,119.864L244.545,386.476L244.545,386.476z
	 M381.237,412.573c0.424,34.502,16.83,57.643,55.539,57.643c15.146,0,28.127-2.002,41.591-7.895
	c1.683-0.844,2.948-0.422,2.948,1.684v31.977c0,2.523-0.843,3.787-2.524,5.049c-13.459,6.732-30.23,9.676-51.269,9.676
	c-67.319,0-92.564-49.648-92.564-105.189c0-60.164,31.136-109.394,85.838-109.394c55.539,0,74.895,46.707,74.895,84.571
	c0,12.202-0.843,22.304-2.104,26.929c-0.424,2.102-1.265,2.844-3.366,3.264c-5.049,0.842-20.195,1.684-42.501,1.684H381.24
	L381.237,412.573z M432.99,377.51c13.043,0,17.671,0,18.937-0.42c0-1.684,0.423-3.127,0.423-4.387
	c0-13.887-6.731-39.371-33.238-39.371c-24.403,0-34.926,21.455-37.449,44.178h51.331H432.99L432.99,377.51z"/>
</svg>
